# xmcd CD database file
#
# Track frame offsets:
#	150
#	10728
#	28073
#	41347
#	61439
#	77606
#	89368
#	102641
#	118337
#	137365
#	151833
#
# Disc length: 2276 seconds
#
# Revision: 0
# Processed by: cddbd v1.5.2PL0 Copyright (c) Steve Scherf et al.
# Submitted via: CDex 1.70beta3
#
DISCID=8408e20b
DTITLE=Sarah Vaughan - Sarah and 2
DYEAR=1962
DGENRE=Jazz
TTITLE0=Just In Time
TTITLE1=When Sunny Gets Blue
TTITLE2=All I Do Is Dream Of You
TTITLE3=I Understand
TTITLE4=Goodnight Sweetheart
TTITLE5=Baby, Won't You Please Come Home
TTITLE6=When Lights Are Low
TTITLE7=Key Largo
TTITLE8=Just Squeeze Me
TTITLE9=All Or Nothing At All
TTITLE10=The Very Thought Of You
EXTD=YEAR: 1962
EXTT0=
EXTT1=
EXTT2=
EXTT3=
EXTT4=
EXTT5=
EXTT6=
EXTT7=
EXTT8=
EXTT9=
EXTT10=
PLAYORDER=
